<svg width="127" height="50" viewBox="0 0 127 50" fill="none" xmlns="http://www.w3.org/2000/svg">
<path d="M5.44745 20.3991V41.7273H1.47521e-06V6.27272H5.26279V11.8125H5.72443C6.5554 10.0121 7.81724 8.56557 9.50995 7.473C11.2027 6.36505 13.3878 5.81107 16.0653 5.81107C18.4659 5.81107 20.5664 6.3035 22.3668 7.28834C24.1673 8.2578 25.5676 9.73508 26.5678 11.7202C27.5681 13.6899 28.0682 16.1828 28.0682 19.1989V41.7273H22.6207V19.5682C22.6207 16.7829 21.8975 14.6132 20.451 13.0589C19.0045 11.4893 17.0194 10.7045 14.4957 10.7045C12.7569 10.7045 11.2027 11.0815 9.8331 11.8356C8.47893 12.5896 7.40945 13.6899 6.62465 15.1364C5.83985 16.5828 5.44745 18.3371 5.44745 20.3991Z" fill="black"/>
<path d="M59.3438 27.2315V6.27272H64.7912V41.7273H59.3438V35.7258H58.9744C58.1435 37.5263 56.8509 39.0574 55.0966 40.3192C53.3423 41.5657 51.1264 42.1889 48.4489 42.1889C46.233 42.1889 44.2633 41.7042 42.5398 40.7347C40.8163 39.7499 39.4621 38.2726 38.4773 36.3029C37.4924 34.3178 37 31.8172 37 28.8011V6.27272H42.4474V28.4318C42.4474 31.017 43.1707 33.0791 44.6172 34.6179C46.0791 36.1567 47.9411 36.9261 50.2031 36.9261C51.5573 36.9261 52.9345 36.5799 54.3349 35.8874C55.7506 35.1949 56.9355 34.1332 57.8896 32.7021C58.859 31.2709 59.3438 29.4474 59.3438 27.2315Z" fill="black"/>
<path d="M64.3878 35.4034L64.2926 28.456H65.4347L81.4233 12.1818H88.3707L71.3352 29.4077H70.8594L64.3878 35.4034ZM59.1534 48.7273V-9.77516e-06H64.7685V48.7273H59.1534ZM82.375 48.7273L68.0994 30.6449L72.0966 26.7429L89.5128 48.7273H82.375Z" fill="black"/>
<path d="M110.403 49.4659C107.203 49.4659 104.394 48.7042 101.978 47.1807C99.5778 45.6573 97.7004 43.526 96.3462 40.7869C95.0075 38.0478 94.3381 34.8471 94.3381 31.1847C94.3381 27.4915 95.0075 24.2676 96.3462 21.5131C97.7004 18.7586 99.5778 16.6197 101.978 15.0962C104.394 13.5728 107.203 12.8111 110.403 12.8111C113.604 12.8111 116.405 13.5728 118.805 15.0962C121.221 16.6197 123.099 18.7586 124.438 21.5131C125.792 24.2676 126.469 27.4915 126.469 31.1847C126.469 34.8471 125.792 38.0478 124.438 40.7869C123.099 43.526 121.221 45.6573 118.805 47.1807C116.405 48.7042 113.604 49.4659 110.403 49.4659ZM110.403 44.5724C112.835 44.5724 114.835 43.9492 116.405 42.7028C117.974 41.4563 119.136 39.8175 119.89 37.7862C120.644 35.755 121.021 33.5544 121.021 31.1847C121.021 28.8149 120.644 26.6066 119.89 24.56C119.136 22.5134 117.974 20.8591 116.405 19.5973C114.835 18.3355 112.835 17.7045 110.403 17.7045C107.972 17.7045 105.972 18.3355 104.402 19.5973C102.832 20.8591 101.671 22.5134 100.917 24.56C100.163 26.6066 99.7855 28.8149 99.7855 31.1847C99.7855 33.5544 100.163 35.755 100.917 37.7862C101.671 39.8175 102.832 41.4563 104.402 42.7028C105.972 43.9492 107.972 44.5724 110.403 44.5724Z" fill="black"/>
</svg>
